<?xml version="1.0" encoding="utf-8"?>
<!-- Generator: Adobe Illustrator 16.0.4, SVG Export Plug-In . SVG Version: 6.00 Build 0)  -->
<!DOCTYPE svg PUBLIC "-//W3C//DTD SVG 1.1//EN" "http://www.w3.org/Graphics/SVG/1.1/DTD/svg11.dtd">
<svg version="1.1" xmlns="http://www.w3.org/2000/svg" xmlns:xlink="http://www.w3.org/1999/xlink" x="0px" y="0px" width="237px"
	 height="112px" viewBox="0 0 237 112" enable-background="new 0 0 237 112" xml:space="preserve">
<g id="Rectangle_74_1_" enable-background="new    ">
	<g>
		<g>
			<path fill="#890816" d="M106.27,53.301c-4.436,0-4.779-3.366-4.779-4.402c0-1.214,0.326-3.363,3.153-4.402
				c2.917-1.072,3.542-1.198,5.549-1.826v-0.519c0-0.974,0-1.212-0.193-1.816c-0.387-1.157-1.497-1.884-3.001-1.884
				c-2.215,0-3.123,1.691-3.13,1.708l-0.176,0.333l-0.821-0.489l0.081-0.255c0.401-1.273,2.008-3.438,5.521-3.438
				c2.282,0,3.769,0.651,4.69,2.05c0.686,1.106,0.74,2.64,0.74,4.245c0,1.409-0.034,2.978-0.065,4.244
				c-0.02,0.869-0.037,1.622-0.037,2.084c0,1.153,0.183,2.052,1.147,2.052c0.24,0,0.403-0.05,0.535-0.162l0.265-0.228l0.54,0.615
				l-0.179,0.235c-0.887,1.063-1.73,1.817-3.233,1.817c-1.302,0-2.203-0.614-2.508-1.655
				C109.644,52.364,108.329,53.301,106.27,53.301z M110.193,44.695c-2.18,0.656-2.92,1.017-3.595,1.358
				c-0.938,0.475-1.428,1.441-1.428,2.572c0,0.886,0.316,2.374,2.442,2.374c0.703,0,1.706-0.134,2.581-0.758V44.695z"/>
		</g>
		<g>
			<g>
				<path fill="#890816" d="M79.164,53.256c-2.124,0-3.741-0.23-5.401-0.77l-0.238-0.082v-1.187c0-1.585-0.034-2.206-0.068-2.711
					l-0.048-0.822l0.966,0.004l0.021,0.341c0.041,0.74,0.289,1.463,0.74,1.976c0.695,0.788,2.299,1.259,3.787,1.259
					c3.121,0,4.572-1.178,4.572-3.716c0-2.169-1.342-3.075-3.196-4.325l-0.297-0.207l-1.958-1.303
					c-2.722-1.803-4.107-3.248-4.107-6.13c0-1.413,0.533-6.018,7.394-6.018c2.816,0,4.987,0.368,5.078,0.381L86.704,30l-0.01,0.292
					c0,0.007-0.024,0.9-0.024,1.87c0,0.764-0.014,1.429,0.013,2.118l0.027,0.513h-0.833l-0.02-0.323
					c-0.062-0.869-0.316-1.497-0.795-1.979c-0.66-0.659-2.119-0.97-3.665-0.97c-3.635,0-4.06,1.87-4.06,3.271
					c0,1.928,0.989,2.583,3.149,4.008l2.48,1.643c2.112,1.408,4.103,2.74,4.103,6.241C87.071,52.619,81.542,53.256,79.164,53.256z"
					/>
			</g>
			<g>
				<path fill="#890816" d="M95.418,53.362c-2.532,0-3.934-0.906-4.556-2.925c-0.259-0.804-0.259-2.386-0.259-3.333
					c0-2.616,0.024-4.717,0.051-7.148l0.014-1.141h-2.161v-0.641l0.211-0.088c1.006-0.415,1.39-0.696,1.834-1.042
					c1.574-1.22,2.666-3.28,2.684-3.31l0.368-0.625h0.712v3.68h5.575v2.025h-5.575v8.595c0,2.565,0.479,4.036,2.911,4.036
					c1.128,0,1.998-0.439,2.004-0.448l0.336-0.174l0.287,0.666l-0.141,0.16C99.657,51.714,98.393,53.362,95.418,53.362z"/>
			</g>
			<g>
				<path fill="#890816" d="M117.684,53.155v-0.777L118,52.355c0.274-0.021,0.968-0.133,1.452-0.675
					c0.505-0.566,0.536-1.962,0.536-4.749v-4.677c0-2.013-0.031-2.877-0.322-3.316c-0.334-0.481-1.075-0.532-1.469-0.56
					c-0.05-0.004-0.095-0.006-0.136-0.01l-0.312-0.034v-0.933l0.37,0.028c0.064,0.006,0.146,0.006,0.251,0.006
					c0.506,0,1.7-0.063,2.958-0.31c0.962-0.152,1.521-0.488,1.727-0.583l0.187-0.086l0.322,0.19v1.301
					c0.827-0.611,2.488-1.572,4.743-1.572c2.951,0,4.878,1.379,5.428,3.88c0.155,0.621,0.214,2.128,0.214,2.93v4.779
					c0,2.697,0.105,3.458,0.611,3.932c0.255,0.234,0.795,0.427,1.266,0.459l0.324,0.02v0.767l-0.812-0.044
					c-1.176-0.058-2.187-0.116-3.249-0.116c-1.208,0-2.255,0-3.714,0.139l-0.379,0.034v-0.757l0.293-0.039
					c0.635-0.097,1.076-0.28,1.359-0.558c0.53-0.528,0.557-1.789,0.598-2.878c0.007-0.179,0.014-0.366,0.023-0.563
					c0.031-0.611,0.031-1.896,0.031-2.837c0-1.226,0-2.495-0.134-3.744c-0.244-2.118-1.349-3.103-3.475-3.103
					c-1.46,0-2.375,0.337-3.064,0.69v8.598c0,2.697,0.11,3.458,0.616,3.932c0.257,0.234,0.791,0.427,1.267,0.459l0.319,0.02v0.767
					l-0.87-0.047c-1.133-0.058-2.116-0.113-3.147-0.113c-1.184,0-2.294,0-3.758,0.139L117.684,53.155z"/>
			</g>
			<g>
				<path fill="#890816" d="M138.095,53.155v-0.791l0.319-0.027c0.279-0.02,0.973-0.125,1.455-0.671
					c0.509-0.567,0.533-1.949,0.533-4.735v-8.116h-2.133V37.9l0.212-0.089c0.931-0.382,1.5-0.686,1.921-1.015
					c0.004-1.449,0.047-3.322,0.244-4.336c0.646-3.381,2.855-5.095,6.565-5.095c1.594,0,3.114,0.533,3.995,1.249l0.127,0.102
					l0.05,0.346l-1.624,2.257l-0.391,0.008l-0.089-0.208c-0.619-1.389-1.522-1.928-2.758-1.928c-0.513,0-1.212,0.153-1.646,0.587
					c-0.71,0.707-0.828,1.761-0.828,3.846v3.167h3.645v2.025h-3.645v9.077c0,2.162,0.07,3.215,0.353,3.635
					c0.457,0.688,1.848,0.742,2.26,0.742h0.346v0.872l-0.363-0.021c-1.802-0.095-3.141-0.139-4.11-0.139
					c-1.216,0-2.595,0-4.061,0.139L138.095,53.155z"/>
			</g>
			<g>
				<path fill="#890816" d="M156.918,53.431c-4.992,0-7.977-3.109-7.977-8.319c0-4.049,2.178-8.774,8.323-8.774
					c4.996,0,7.979,3.115,7.979,8.322C165.244,48.71,163.062,53.431,156.918,53.431z M157.125,38.229
					c-0.966,0-1.746,0.25-2.316,0.747c-1.316,1.1-1.981,3.105-1.981,5.96c0,1.102,0.204,6.606,4.233,6.606
					c0.961,0,1.743-0.253,2.32-0.744c1.312-1.101,1.978-3.108,1.978-5.961C161.358,43.733,161.153,38.229,157.125,38.229z"/>
			</g>
			<g>
				<path fill="#890816" d="M166.822,53.155v-0.828l0.318-0.023c0.277-0.021,0.977-0.129,1.455-0.675
					c0.51-0.567,0.529-1.911,0.529-4.698v-4.677c0-2.013-0.026-2.877-0.316-3.316c-0.335-0.481-1.072-0.532-1.468-0.56
					c-0.05-0.004-0.095-0.006-0.13-0.01l-0.318-0.034v-0.991l0.354,0.006c0.06,0.006,0.164,0.011,0.268,0.011
					c0.508,0,1.701-0.064,2.957-0.312c0.794-0.133,1.479-0.335,1.753-0.466l0.189-0.084l0.29,0.149v1.422
					c0.783-0.739,2.027-1.523,3.783-1.523c1.145,0,2.069,0.305,2.741,0.913l0.112,0.106v0.513l-1.378,2.524h-0.664l-0.103-0.155
					c-0.383-0.605-1.148-1.317-2.635-1.317c-0.678,0-1.268,0.167-1.788,0.52v8.245c0,2.162,0.073,3.18,0.355,3.604
					c0.463,0.684,1.848,0.735,2.259,0.735h0.342v0.91l-0.359-0.021c-1.801-0.095-3.146-0.139-4.111-0.139
					c-1.215,0-2.595,0-4.058,0.139L166.822,53.155z"/>
			</g>
			<g>
				<path fill="#890816" d="M192.55,53.387l-0.438-0.15v-1.378c-0.811,0.601-2.421,1.538-4.571,1.538
					c-4.493,0-7.399-3.115-7.399-7.944c0-1.599,0.314-3.124,0.894-4.403c1.371-2.973,4.219-4.674,7.808-4.674
					c1.316,0,2.496,0.163,3.198,0.312v-3.475c0-2.04-0.026-3.13-0.318-3.567c-0.333-0.476-1.052-0.533-1.438-0.56
					c-0.05-0.003-0.095-0.006-0.132-0.01l-0.31-0.029l0.073-0.735h0.346c0.077,0,1.97-0.159,3.506-0.461
					c0.645-0.102,1.283-0.248,1.615-0.37l0.164-0.062l0.281,0.167l-0.015,0.162c-0.109,1.347-0.125,4.229-0.125,6.391v13.343
					c0,1.993,0.027,3.228,0.315,3.626c0.34,0.484,1.051,0.565,1.438,0.596c0.053,0.005,0.101,0.007,0.137,0.011l0.311,0.013v0.878
					h-0.345c-0.366,0-1.795,0.098-3.177,0.336c-0.793,0.129-1.379,0.245-1.668,0.377L192.55,53.387z M188.773,38.334
					c-3.19,0-4.746,2.183-4.746,6.673c0,1.819,0.516,6.052,5.266,6.052h0.153c0.577,0,1.654-0.088,2.595-0.669V39.431
					C191.773,39.166,190.779,38.334,188.773,38.334z"/>
			</g>
		</g>
	</g>
	<g>
		<g>
			<path fill="#221F1F" d="M73.75,59.527h2.668l2.461,6.712l0.896,2.586h0.083l0.875-2.586l2.417-6.712h2.668v13.632h-2.27v-6.232
				c0-1.271,0.187-3.085,0.311-4.336h-0.083l-1.105,3.106l-2.356,6.191h-1.125l-2.355-6.191l-1.085-3.106h-0.083
				c0.126,1.251,0.312,3.065,0.312,4.336v6.232h-2.23V59.527z"/>
			<path fill="#221F1F" d="M94.499,59.527h8.213v2.045h-5.794v3.48h4.898v2.041h-4.898v4.022h6.003v2.043h-8.421V59.527z"/>
			<path fill="#221F1F" d="M110.932,59.527h3.648c4.168,0,6.629,2.25,6.629,6.754c0,4.521-2.461,6.878-6.504,6.878h-3.774V59.527z
				 M114.414,71.201c2.75,0,4.314-1.565,4.314-4.92c0-3.336-1.565-4.795-4.314-4.795h-1.062v9.715H114.414z"/>
			<path fill="#221F1F" d="M129.179,59.527h2.421v13.632h-2.421V59.527z"/>
			<path fill="#221F1F" d="M145.861,59.279c1.646,0,3.02,0.812,3.876,1.729l-1.354,1.5c-0.69-0.688-1.46-1.126-2.503-1.126
				c-2.25,0-3.835,1.875-3.835,4.94c0,3.106,1.46,4.98,3.755,4.98c1.207,0,2.083-0.501,2.854-1.354l1.354,1.481
				c-1.102,1.271-2.541,1.979-4.251,1.979c-3.479,0-6.188-2.501-6.188-7.024C139.568,61.925,142.358,59.279,145.861,59.279z"/>
			<path fill="#221F1F" d="M157.499,59.527h2.419v13.632h-2.419V59.527z"/>
			<path fill="#221F1F" d="M168.596,59.527h2.48l4.25,7.673l1.398,2.896h0.081c-0.101-1.396-0.312-3.128-0.312-4.647v-5.921h2.314
				v13.632h-2.48l-4.252-7.671l-1.396-2.897h-0.086c0.107,1.439,0.316,3.084,0.316,4.609v5.959h-2.314V59.527z"/>
			<path fill="#221F1F" d="M187.488,59.527h8.211v2.045h-5.795v3.48h4.898v2.041h-4.898v4.022h6.004v2.043h-8.42V59.527z"/>
		</g>
	</g>
	<path fill="#890816" d="M61.148,28.668H43.708v43.363v2.255c1.293-0.718,2.495-1.47,3.628-2.255
		C68.32,57.551,62.805,32.542,61.148,28.668z"/>
	<path fill="#890816" d="M43.247,28.668H25.808c-0.889,2.073-2.882,10.207-1.327,19.54h18.767V28.668z"/>
	<path fill="#890816" d="M24.566,48.674c1.423,7.977,5.488,16.759,15.053,23.357c1.134,0.785,2.335,1.537,3.628,2.255v-2.255V48.674
		H24.566z"/>
	<path fill="#FFFFFF" d="M43.247,28.668v19.54H24.48c0.027,0.155,0.056,0.312,0.085,0.466h18.681v23.357v2.255
		c0.078,0.042,0.151,0.091,0.231,0.134c0.081-0.043,0.153-0.092,0.23-0.134v-2.255V28.668H43.247z"/>
	<path fill="#FFFFFF" d="M33.821,32.264l0.007,0.545c0.363-0.295,0.893-0.527,1.313-0.612c-0.23,1.044-0.746,1.311-1.306,1.405
		l-0.021,0.88c0.457-0.367,1.145-0.861,1.67-0.968c-0.299,1.332-0.94,1.816-1.649,1.917v0.866c0.566-0.366,1.461-1.008,2.12-1.116
		c-0.375,1.347-1.212,1.882-2.117,1.965l0.003,0.798c0.567-0.367,1.455-0.942,2.113-1.045c-0.362,1.301-1.241,2.092-2.113,2.212
		v0.676c0.57-0.365,1.455-0.941,2.113-1.046c-0.345,1.366-1.213,2.103-2.12,2.181v0.553c0.682-0.406,1.8-1.108,2.586-1.224
		c-0.448,1.465-1.507,2.261-2.586,2.361v0.633c0.366-0.293,1.133-0.61,1.554-0.693c-0.224,0.997-1.026,1.341-1.561,1.474v1.182
		c0.125-0.003,0.248-0.026,0.376-0.041c-0.038-0.409,0.204-0.832,0.736-1.171c0.024,0.314-0.156,0.774-0.26,1.082
		c0.287-0.065,0.572-0.144,0.857-0.264c-0.153-0.599,0.047-1.42,0.733-2.116c0.129,0.464,0.007,1.218-0.054,1.72
		c0.301-0.185,0.607-0.386,0.903-0.642c-0.332-0.568-0.269-1.452,0.37-2.335c0.19,0.435,0.2,1.273,0.205,1.779
		c0.26-0.278,0.542-0.589,0.789-0.926c-0.451-0.551-0.468-1.084,0.073-2.157c0.188,0.434,0.358,1.086,0.365,1.594
		c0.234-0.302,0.401-0.553,0.601-0.916c-0.119-0.277-0.064-0.488,0.08-0.668c0.199-0.25,0.497-0.463,0.766-0.299
		c0.373,0.169,0.185,0.578,0.054,0.879c-0.092,0.211-0.251,0.355-0.529,0.347c-0.19,0.342-0.462,0.715-0.697,1.014
		c0.544,0.171,0.927,0.298,1.292,0.671c-0.801,0.331-1.28,0.253-1.675-0.079c-0.26,0.344-0.638,0.718-0.91,1
		c0.528,0.161,0.874,0.309,1.303,0.747c-0.872,0.36-1.517,0.249-1.906-0.165c-0.304,0.261-0.595,0.531-0.908,0.715
		c0.516,0.263,0.891,0.542,1.201,0.971c-0.991,0.228-1.646-0.055-1.937-0.612c-0.296,0.118-0.569,0.219-0.867,0.277
		c0.282,0.241,0.475,0.428,0.618,0.748c-0.681-0.017-1.069-0.176-1.168-0.596c-0.139,0.014-0.276,0.105-0.414,0.103v1.331
		l-0.837-0.371v-0.977c-0.085-0.01-0.283-0.076-0.364-0.091c-0.121,0.398-0.419,0.551-1.072,0.563
		c0.141-0.323,0.22-0.552,0.551-0.722c-0.304-0.078-0.586-0.224-0.884-0.362c-0.258,0.621-0.847,0.878-1.894,0.637
		c0.306-0.429,0.695-0.816,1.219-0.995c-0.268-0.169-0.516-0.334-0.781-0.59c-0.38,0.429-1.032,0.574-1.924,0.204
		c0.364-0.373,0.727-0.668,1.283-0.773c-0.278-0.277-0.536-0.614-0.804-0.951c-0.396,0.351-0.999,0.466-1.816,0.121
		c0.366-0.372,0.786-0.767,1.31-0.76c-0.16-0.23-0.302-0.491-0.469-0.757c-0.174-0.002-0.326,0-0.504-0.224
		c-0.192-0.246-0.377-0.781-0.053-0.95c0.197-0.172,0.662,0.081,0.813,0.358c0.141,0.255,0.09,0.407,0.039,0.587
		c0.163,0.255,0.348,0.509,0.513,0.737c-0.115-0.736,0.095-1.344,0.286-1.776c0.657,0.913,0.535,1.703,0.168,2.267
		c0.273,0.336,0.502,0.589,0.774,0.865c-0.077-0.515-0.018-1.294,0.172-1.729c0.615,0.846,0.696,1.714,0.417,2.284
		c0.258,0.217,0.5,0.424,0.753,0.585c-0.139-0.484-0.203-1.289-0.075-1.751c0.693,0.705,0.906,1.501,0.748,2.105
		c0.293,0.134,0.58,0.251,0.875,0.319c-0.139-0.287-0.277-0.778-0.251-1.091c0.519,0.333,0.652,0.716,0.632,1.122
		c0.08,0.009,0.302,0.11,0.38,0.11l-0.017-1.166c-0.512-0.132-1.286-0.428-1.537-1.417c0.479,0.114,1.09,0.228,1.537,0.624v-0.617
		c-1.039-0.085-2.081-0.821-2.597-2.288c0.9,0.157,1.766,0.584,2.597,1.125v-0.541c-0.906-0.066-1.762-0.905-2.142-2.098
		c0.75,0.139,1.447,0.478,2.142,0.973v-0.682c-0.849-0.092-1.721-0.814-2.142-2.138c0.75,0.141,1.447,0.464,2.142,0.959v-0.766
		c-0.875-0.06-1.704-0.55-2.142-1.909c0.75,0.14,1.447,0.532,2.142,1.027V35.43c-0.689-0.079-1.34-0.502-1.687-1.843
		c0.601,0.141,1.13,0.396,1.687,0.893v-0.883c-0.533-0.095-1.023-0.305-1.29-1.343c0.364,0.083,0.801,0.102,1.293,0.542l-0.01-0.531
		c-0.4-0.598-0.312-0.862-0.265-1.335c0.044-0.43,0.205-0.75,0.669-0.771c0.462,0.022,0.624,0.341,0.672,0.771
		C34.134,31.402,34.222,31.666,33.821,32.264"/>
	<path fill="#FFFFFF" d="M53.396,43.067c0.278-3.315,0.784-4.233,1.616-4.927l0.071-0.059l-0.312-2.037l-0.16,0.027
		c-0.444,0.074-0.857,0.5-1.133,0.877l-0.003-1.921l-2.244-1.328v1.146c-0.237-0.242-0.462-0.431-0.55-0.496
		c-0.252-0.188-0.479-0.274-0.706-0.274c-0.133,0-0.251,0.031-0.356,0.057c-0.177,0.046-0.298,0.084-0.557-0.026
		c-1.13-0.229-2.002,0.022-2.488,0.705c-0.454,0.641-0.527,1.63-0.192,2.583c0.276,0.772,0.792,1.559,1.176,2.082
		c0.224,0.307,2.191,2.381,2.644,2.847c0.329,0.332,0.682,0.661,1.039,0.987l0.001,0.881l-0.566-0.385l-0.562,1.295l0.119,0.075
		c0.499,0.311,0.992,1.115,1.329,5.322c-1.217,0.447-2.853,1.904-2.897,3.411c-0.02,0.696,0.312,1.667,2.026,2.337
		c0.37,0.144,0.772,0.301,1.171,0.465c0.021,0.767,0.04,1.585,0.055,2.461c-0.307,0.113-1.015,0.484-1.141,1.055
		c-0.1,0.455,0.176,0.893,0.823,1.307c0.114,0.074,0.234,0.117,0.355,0.154c0.002,0.22,0.002,0.453,0.006,0.68
		c-0.375,0.179-0.513,0.267-0.745,0.526c-0.115,0.134-0.222,0.273-0.157,0.407c0.011,0.036,0.064,0.117,0.196,0.117
		c0.09,0,0.218-0.038,0.458-0.136c0.139-0.059,0.223-0.081,0.285-0.094c0.105,0.247,0.329,0.405,0.585,0.405
		c0.274,0,0.499-0.188,0.563-0.499c-0.001-0.095-0.001-0.182-0.001-0.274c0.305-0.152,0.5-0.424,0.514-0.764
		c0.016-0.387-0.188-0.762-0.528-1.014c0-0.33-0.003-0.646-0.005-0.966c1.14-0.229,2.354-0.966,2.463-1.954
		c0.064-0.591-0.251-1.461-2.14-2.226c-0.117-0.048-0.227-0.092-0.338-0.138c-0.002-1.55,0.001-2.951,0.012-4.227
		c2.024-1.018,3.406-1.96,3.583-3.229C56.885,46.987,55.789,45.427,53.396,43.067z M50.562,40.41
		c-3.062-2.773-3.19-4.037-2.993-4.543c0.178-0.463,0.716-0.59,1.002-0.59c0.08,0,0.134,0.012,0.168,0.018
		c0.098,0.022,0.102,0.039,0.132,0.164c0.049,0.195,0.121,0.492,0.709,0.684c0.723,0.24,1.263,0.367,1.653,0.385l0.005,4.506
		C51.012,40.824,50.803,40.63,50.562,40.41z M54.214,58.198c-0.005,0.133-0.172,0.389-1.094,0.675
		c-0.002-0.547-0.006-1.079-0.006-1.6C53.763,57.604,54.228,57.928,54.214,58.198z M53.151,35.212l0.001,1.344l-0.814-0.215
		l-0.367-0.189c0.05-0.27-0.151-0.619-0.416-0.944l-0.001-0.939L53.151,35.212z M50.215,53.951
		c-0.047-0.402,0.397-0.925,1.463-1.721c0.052,0.875,0.096,1.861,0.137,2.97C50.887,54.767,50.266,54.363,50.215,53.951z
		 M52.187,56.85c0.211,0.088,0.412,0.178,0.605,0.267c0.001,0.598,0.003,1.216,0.006,1.853l-0.006,0.001v1.172l0.014-0.003
		c0.001,0.235,0.003,0.467,0.003,0.709c-0.163-0.067-0.47-0.256-0.547-0.503C52.241,59.074,52.218,57.916,52.187,56.85z
		 M52.583,63.269c-0.099,0-0.226-0.055-0.29-0.203v-0.044c-0.004-0.428-0.009-0.845-0.014-1.253c0.34,0.077,0.534,0.149,0.528,0.596
		v0.593l0.019-0.006c0,0.039,0,0.073,0,0.11C52.783,63.254,52.629,63.269,52.583,63.269z M52.789,55.628
		c-0.228-0.093-0.442-0.187-0.646-0.277c-0.312-8.992-1.008-9.963-1.621-10.377l0.294-0.681l0.752,0.51l-0.001-1.2
		c0.138,0.125,0.277,0.252,0.417,0.375c0.333,0.297,0.656,0.59,0.968,0.879C52.829,47.338,52.782,50.775,52.789,55.628z
		 M53.092,42.775c-0.463-0.451-0.976-0.933-1.529-1.444l-0.005-4.818c0.107-0.019,0.182-0.062,0.246-0.113l0.368,0.181l0.48,0.768
		l0.149-0.046l-0.03-0.488l0.381-0.078l0.002,0.774l0.306,0.072c0.166-0.335,0.614-0.954,1.045-1.145l0.229,1.513
		C53.892,38.678,53.379,39.617,53.092,42.775z M55.022,48.082c-0.109,0.649-0.739,1.222-1.882,1.75
		c0.025-1.855,0.066-3.392,0.125-4.679C54.358,46.202,55.166,47.193,55.022,48.082z"/>
	<path fill="#A20D38" d="M49.632,35.694c0.078,0.043,0.169,0.037,0.198-0.016c0.029-0.055-0.012-0.139-0.093-0.18
		c-0.083-0.043-0.173-0.037-0.204,0.019C49.504,35.571,49.547,35.652,49.632,35.694"/>
	<path fill="#A20D38" d="M49.733,35.802c-0.047,0-0.095-0.011-0.141-0.035c-0.07-0.038-0.121-0.096-0.141-0.159
		c-0.013-0.046-0.01-0.093,0.01-0.129c0.051-0.092,0.19-0.116,0.312-0.054c0.119,0.063,0.176,0.186,0.129,0.285
		C49.869,35.771,49.808,35.802,49.733,35.802"/>
	<path fill="#A20D38" d="M50.059,34.773c0.064,0.064,0.155,0.078,0.197,0.032c0.041-0.045,0.022-0.132-0.046-0.193
		c-0.07-0.063-0.158-0.079-0.199-0.031C49.971,34.622,49.99,34.711,50.059,34.773"/>
	<path fill="#A20D38" d="M50.188,34.913c-0.065,0-0.133-0.029-0.187-0.081c-0.055-0.051-0.09-0.122-0.091-0.188
		c-0.003-0.047,0.015-0.091,0.046-0.122c0.055-0.067,0.208-0.062,0.309,0.03c0.056,0.048,0.089,0.118,0.092,0.182
		c0,0.048-0.011,0.092-0.044,0.126C50.283,34.895,50.237,34.913,50.188,34.913"/>
	<path fill="#FFFFFF" d="M38.595,56.244l-0.002-4.162h-7.381v7.381h2.279v4.165h7.381v-7.385H38.595z M36.412,53.019h1.208v3.091
		h-1.208V53.019z M37.652,59.464v0.942h-0.939v-0.942H37.652z M32.318,53.019h3.088v1.212h-3.088V53.019z M33.49,58.525h-1.206
		v-3.089h1.206V58.525z M34.433,55.302h0.937v0.942h-0.937V55.302z M34.531,57.314h3.089v1.211h-3.089V57.314z M35.773,62.553
		h-1.208v-3.089h1.208V62.553z M39.766,62.518h-3.088V61.31h3.088V62.518z M39.802,60.371h-1.21v-3.087h1.21V60.371z"/>
</g>
<defs>
	<filter id="Adobe_OpacityMaskFilter" filterUnits="userSpaceOnUse">
		<feColorMatrix  type="matrix" values="1 0 0 0 0  0 1 0 0 0  0 0 1 0 0  0 0 0 1 0"/>
	</filter>
</defs>
<mask maskUnits="userSpaceOnUse" id="Vector_Smart_Object_copy_2_xA0_Image_2_">
	<g id="Vector_Smart_Object_copy_2Opacity_Mask_3_" filter="url(#Adobe_OpacityMaskFilter)">
		
			<image overflow="visible" width="237" height="112" id="Vector_Smart_Object_copy_2Opacity_Mask_2_" xlink:href="EBE9F47DCD563DF3.jpg" >
		</image>
	</g>
</mask>
<g id="Vector_Smart_Object_copy_2_xA0_Image_1_" mask="url(#Vector_Smart_Object_copy_2_xA0_Image_2_)">
</g>
</svg>
